<?xml version="1.0" encoding="UTF-8" standalone="no"?><!DOCTYPE svg PUBLIC "-//W3C//DTD SVG 1.1//EN" "http://www.w3.org/Graphics/SVG/1.1/DTD/svg11.dtd"><svg width="100%" height="100%" viewBox="0 0 2134 2134" version="1.1" xmlns="http://www.w3.org/2000/svg" xmlns:xlink="http://www.w3.org/1999/xlink" xml:space="preserve" xmlns:serif="http://www.serif.com/" style="fill-rule:evenodd;clip-rule:evenodd;stroke-linecap:round;stroke-linejoin:round;stroke-miterlimit:1.5;"><g><circle cx="1066.67" cy="1066.67" r="1044.49" style="fill:#fff;stroke:#000;stroke-width:41.67px;"/><rect x="535.499" y="823.39" width="601.676" height="70.509" style="fill:#41474d;fill-rule:nonzero;"/><rect x="641.263" y="858.645" width="70.509" height="141.018" style="fill:#41474d;fill-rule:nonzero;"/><path d="M1668.34,536.654l0,1203.35l-354.895,0l-70.509,-70.508l-141.018,-0l0,-1132.84l566.422,-0Z" style="fill:#40ab5c;fill-rule:nonzero;"/><rect x="1383.96" y="536.654" width="284.386" height="1203.35" style="fill:#40ab5c;fill-rule:nonzero;"/><path d="M1260.01,1175.93l-298.368,-0l-71.25,70.509l-70.509,70.509l0,352.545l70.509,70.508l70.509,0l37.109,-70.508l33.4,70.508l282.036,0l0,-493.562l-53.436,-70.509Z" style="fill:#73b1d8;fill-rule:nonzero;"/><path d="M960.903,1175.93l0,141.018l-141.018,-0l0,70.509l141.018,-0l0,70.509l-141.018,-0l0,70.509l141.018,-0l0,70.509l-141.018,-0l0,70.509l141.018,-0l0,70.508l70.509,0l0,-564.071l-70.509,-0Z" style="fill:#41474d;fill-rule:nonzero;"/><path d="M836.958,1175.93l-300.718,-0l-71.25,70.509l0,70.509l70.509,43.791l-70.509,26.718l0,70.509l70.509,36.368l-70.509,34.141l0,70.509l70.509,37.851l-70.509,32.658l0,70.508l70.509,0l37.111,-70.508l33.398,70.508l284.386,0l0,-493.562l-53.436,-70.509Z" style="fill:#c3deee;fill-rule:nonzero;"/><path d="M535.499,1175.93l0,141.018l-70.509,-0l0,70.509l70.509,-0l0,70.509l-70.509,-0l0,70.509l70.509,-0l0,70.509l-70.509,-0l0,70.509l70.509,-0l0,70.508l70.509,0l0,-564.071l-70.509,-0Z" style="fill:#5c6366;fill-rule:nonzero;"/><path d="M1101.92,964.408l-211.527,141.018l-70.509,70.509l70.509,70.509l423.054,-0l0,-141.018l-211.527,-141.018Z" style="fill:#4c9bcd;fill-rule:nonzero;"/><path d="M1101.92,964.408l-211.527,141.018l-70.509,70.509l70.509,70.509l423.054,-0l0,-141.018l-211.527,-141.018Z" style="fill:#4c9bcd;fill-rule:nonzero;"/><path d="M676.517,964.408l-211.527,141.018l0,141.018l425.404,-0l0,-141.018l-213.877,-141.018Z" style="fill:#9bc8e3;fill-rule:nonzero;"/><path d="M1383.57,258.785l-281.646,141.017l0,141.018l566.422,0l0,-141.018l-284.776,-141.017Z" style="fill:#40ab5c;fill-rule:nonzero;"/><clipPath id="_clip1"><rect x="1248.84" y="536.654" width="297.594" height="297.594"/></clipPath><g clip-path="url(#_clip1)"><g><g><path d="M1545.92,540.834c-1.042,-2.53 -3.518,-4.18 -6.25,-4.18c-262.491,-0 -290.831,108.784 -290.831,155.56c0,16.828 3.733,32.546 11.106,46.709c1.136,2.191 3.381,3.584 5.844,3.639c2.326,-0.068 4.775,-1.231 6.006,-3.382c17.72,-30.625 67.905,-106.214 150.785,-146.375c3.396,-1.624 7.454,-0.231 9.063,3.111c1.624,3.368 0.217,7.426 -3.138,9.05c-6.249,3.03 -12.255,6.33 -18.139,9.752c-2.246,1.312 -4.424,2.706 -6.628,4.072c-3.315,2.056 -6.588,4.152 -9.78,6.317c-3.179,2.138 -6.318,4.329 -9.402,6.574c-0.961,0.703 -1.88,1.421 -2.827,2.138c-82.488,61.466 -132.89,159.523 -132.89,193.666c0,3.733 3.03,6.763 6.764,6.763c3.733,0 6.763,-3.03 6.763,-6.763c0,-10.903 7.427,-33.006 21.481,-59.37c20.399,16.678 47.845,25.552 79.972,25.552c86.857,0 105.051,-82.65 114.817,-127.059c13.148,-59.762 42.083,-94.675 65.809,-118.415c1.948,-1.935 2.516,-4.83 1.475,-7.359Z" style="fill-rule:nonzero;"/></g></g></g></g></svg>